# Blender 3.3.0
# www.blender.org
o Cube
v 0.000299 -0.062287 0.069645
v 0.000299 0.062287 0.069645
v 0.000299 -0.017633 -0.069645
v 0.000299 0.021609 -0.069645
v 0.106871 -0.062287 0.069645
v 0.106871 0.062287 0.069645
v 0.106871 -0.017633 -0.069645
v 0.106871 0.021609 -0.069645
v 0.000299 -0.064234 0.041558
v 0.000299 0.065385 0.041558
v 0.106871 -0.064234 0.041558
v 0.106871 0.065385 0.041558
v 0.000299 0.021283 0.069645
v 0.000299 0.008692 -0.069645
v 0.106871 0.008692 -0.069645
v 0.106871 0.021283 0.069645
v 0.106871 0.022720 0.041558
v 0.000299 0.022720 0.041558
v 0.000299 -0.006406 -0.069645
v 0.106871 -0.006406 -0.069645
v 0.106871 -0.026647 0.069645
v 0.106871 -0.027151 0.041558
v 0.000299 -0.027151 0.041558
v 0.000299 -0.026647 0.069645
v 0.232365 0.041597 0.034217
v 0.232365 0.038499 0.062304
v 0.232365 -0.026647 0.062304
v 0.232365 -0.037224 0.062304
v 0.232365 -0.039172 0.034217
v 0.232365 -0.027151 0.034217
v 0.232365 0.021283 0.062304
v 0.232365 0.022720 0.034217
v 0.127070 -0.058253 0.062916
v 0.127070 -0.026647 0.062916
v 0.127070 -0.027151 0.033300
v 0.127070 -0.060200 0.033300
v 0.127406 0.061493 0.033300
v 0.127406 0.022720 0.033300
v 0.127406 0.021283 0.062916
v 0.127406 0.058394 0.062916
vn -1.0000 -0.0000 -0.0000
vn -0.0000 -0.0000 -1.0000
vn 0.0058 -0.0000 1.0000
vn -0.0000 -0.0000 1.0000
vn -0.0000 -0.9976 0.0692
vn -0.0000 0.9940 0.1097
vn -0.0000 0.9305 -0.3663
vn -0.0000 -0.9223 -0.3865
vn 1.0000 -0.0000 -0.0000
vn 0.0087 -0.0000 -1.0000
vn -0.0000 0.9998 -0.0175
vn 0.0001 -0.9988 -0.0498
vn 0.1953 -0.9785 0.0661
vn 0.1851 0.9771 0.1049
vn 0.2188 -0.9736 0.0657
vn -0.3784 -0.0000 -0.9256
vn -0.0065 0.9998 -0.0175
vn 0.3160 -0.0000 0.9487
vn 0.2218 0.9695 0.1041
vn 0.3114 -0.0000 0.9503
vn -0.0182 -0.9986 -0.0498
vn -0.3731 -0.0000 -0.9278
vt 0.125000 0.750000
vt 0.375000 1.000000
vt 0.375000 0.000000
vt 0.625000 1.000000
vt 0.875000 0.750000
vt 0.625000 0.000000
vt 0.125000 0.500000
vt 0.375000 0.250000
vt 0.625000 0.250000
vt 0.875000 0.500000
vt 0.375000 0.750000
vt 0.625000 0.750000
vt 0.375000 0.500000
vt 0.625000 0.500000
vt 0.125000 0.677631
vt 0.375000 0.072369
vt 0.875000 0.677631
vt 0.625000 0.072369
vt 0.375000 0.677631
vt 0.625000 0.677631
vt 0.542711 0.000000
vt 0.542711 1.000000
vt 0.542711 0.250000
vt 0.542711 0.500000
vt 0.542711 0.750000
vt 0.542711 0.677631
vt 0.542711 0.072369
vt 0.446524 0.250000
vt 0.446524 0.500000
vt 0.446524 0.750000
vt 0.446524 0.677631
vt 0.446524 0.072369
vt 0.446524 1.000000
vt 0.446524 0.000000
vt 0.625000 0.677631
vt 0.625000 0.750000
vt 0.446524 0.750000
vt 0.375000 0.750000
vt 0.375000 0.677631
vt 0.446524 0.677631
vt 0.542711 0.750000
vt 0.542711 0.677631
vt 0.375000 0.750000
vt 0.446524 0.750000
vt 0.446524 0.677631
vt 0.375000 0.677631
vt 0.625000 0.677631
vt 0.542711 0.677631
vt 0.542711 0.750000
vt 0.625000 0.750000
s 0
f 18/27/1 10/18/1 4/9/1 14/23/1
f 14/23/2 4/9/2 8/14/2 15/24/2
f 34/44/3 33/43/3 28/38/3 27/37/3
f 16/25/4 6/12/4 2/4/4 13/22/4
f 9/15/5 11/19/5 5/11/5 1/1/5
f 12/20/6 10/17/6 2/5/6 6/12/6
f 8/14/7 4/10/7 10/17/7 12/20/7
f 3/7/8 7/13/8 11/19/8 9/15/8
f 15/24/9 8/14/9 12/20/9 17/26/9
f 13/21/1 2/6/1 10/18/1 18/27/1
f 24/34/1 13/21/1 18/27/1 23/32/1
f 20/29/9 15/24/9 17/26/9 22/31/9
f 21/30/4 16/25/4 13/22/4 24/33/4
f 22/31/9 17/26/9 16/25/9 21/30/9
f 19/28/2 14/23/2 15/24/2 20/29/2
f 23/32/1 18/27/1 14/23/1 19/28/1
f 9/16/1 23/32/1 19/28/1 3/8/1
f 3/8/2 19/28/2 20/29/2 7/13/2
f 38/48/10 37/47/10 25/35/10 32/42/10
f 5/11/4 21/30/4 24/33/4 1/2/4
f 7/13/9 20/29/9 22/31/9 11/19/9
f 1/3/1 24/34/1 23/32/1 9/16/1
f 32/42/9 25/35/9 26/36/9 31/41/9
f 29/39/9 30/40/9 27/37/9 28/38/9
f 35/45/11 34/44/11 27/37/11 30/40/11
f 39/49/12 38/48/12 32/42/12 31/41/12
f 36/46/10 35/45/10 30/40/10 29/39/10
f 33/43/13 36/46/13 29/39/13 28/38/13
f 40/50/3 39/49/3 31/41/3 26/36/3
f 37/47/14 40/50/14 26/36/14 25/35/14
f 5/11/15 11/19/15 36/46/15 33/43/15
f 11/19/16 22/31/16 35/45/16 36/46/16
f 22/31/17 21/30/17 34/44/17 35/45/17
f 21/30/18 5/11/18 33/43/18 34/44/18
f 12/20/19 6/12/19 40/50/19 37/47/19
f 6/12/20 16/25/20 39/49/20 40/50/20
f 16/25/21 17/26/21 38/48/21 39/49/21
f 17/26/22 12/20/22 37/47/22 38/48/22
